<svg version="1.1" viewBox="0.0 0.0 256.0 256.0" fill="none" stroke="none" stroke-linecap="square" stroke-miterlimit="10" xmlns:xlink="http://www.w3.org/1999/xlink" xmlns="http://www.w3.org/2000/svg"><clipPath id="p.0"><path d="m0 0l256.0 0l0 256.0l-256.0 0l0 -256.0z" clip-rule="nonzero"/></clipPath><g clip-path="url(#p.0)"><path fill="#000000" fill-opacity="0.0" d="m0 0l256.0 0l0 256.0l-256.0 0z" fill-rule="evenodd"/><defs><radialGradient id="p.1" gradientUnits="userSpaceOnUse" gradientTransform="matrix(13.458720578601104 0.0 0.0 13.458720578601104 0.0 0.0)" spreadMethod="pad" cx="9.510074211628115" cy="9.523688505056565" fx="9.510074211628115" fy="9.523688505056565" r="13.458720207214355"><stop offset="0.0" stop-color="#ffb4c6"/><stop offset="0.59" stop-color="#f988a3"/><stop offset="1.0" stop-color="#ff5982"/></radialGradient></defs><path fill="url(#p.1)" d="m0.0046125986 -0.0010698163l255.97765 0l0 256.35547l-255.97765 0z" fill-rule="evenodd"/><path fill="#ffffff" d="m0.0046125986 83.24251l85.186 0l0 0c22.473755 0 44.02704 8.927666 59.918396 24.819016c15.891342 15.891342 24.819 37.444626 24.819 59.918396l0 88.37732l-169.9234 0z" fill-rule="evenodd"/><path stroke="#ffffff" stroke-width="1.0" stroke-linejoin="round" stroke-linecap="butt" d="m0.0046125986 83.24251l85.186 0l0 0c22.473755 0 44.02704 8.927666 59.918396 24.819016c15.891342 15.891342 24.819 37.444626 24.819 59.918396l0 88.37732l-169.9234 0z" fill-rule="evenodd"/><defs><linearGradient id="p.2" gradientUnits="userSpaceOnUse" gradientTransform="matrix(4.663404491283086 -3.8365112831155654 3.8365112831155654 4.663404491283086 0.0 0.0)" spreadMethod="pad" x1="11.974994318106774" y1="13.820474546035992" x2="7.311589826947314" y2="13.820440589761436"><stop offset="0.0" stop-color="#efefef"/><stop offset="1.0" stop-color="#cccccc"/></linearGradient></defs><path fill="url(#p.2)" d="m231.21661 167.79073l0 0c-7.0243225 7.042816 -25.733704 -1.1558228 -48.836227 -21.400558c-23.102524 -20.244728 -46.94232 -49.3319 -62.227898 -75.92488c-15.2855835 -26.59298 -19.598076 -46.483543 -11.256699 -51.919403l60.537132 75.12859z" fill-rule="evenodd"/></g></svg>